<?xml version="1.0" encoding="utf-8"?>
<!-- Generator: Adobe Illustrator 16.0.0, SVG Export Plug-In . SVG Version: 6.00 Build 0)  -->
<!DOCTYPE svg PUBLIC "-//W3C//DTD SVG 1.1//EN" "http://www.w3.org/Graphics/SVG/1.1/DTD/svg11.dtd">
<svg version="1.1" id="Layer_1" xmlns="http://www.w3.org/2000/svg" xmlns:xlink="http://www.w3.org/1999/xlink" x="0px" y="0px"
	 width="144px" height="52px" viewBox="0 0 144 52" enable-background="new 0 0 144 52" xml:space="preserve">
<rect width="144" height="52"/>
<g>
	<g>
		<g id="bag_3_">
			<path fill="#FFFFFF" d="M21.082,36.629l-10.956-1.535v-9.227h10.956V36.629z M21.082,25.042H10.126v-8.721l10.956-1.538V25.042z
				 M36.015,38.73l-14.121-2.017V25.867h14.121V38.73z M36.015,25.042H21.894V14.698l14.121-2.014V25.042z"/>
		</g>
	</g>
	<g>
		<path fill="#FFFFFF" d="M51.235,20.489c-0.799,0.458-1.688,0.687-2.665,0.687c-0.744,0-1.408-0.169-1.991-0.508
			s-1.032-0.817-1.347-1.436c-0.314-0.618-0.472-1.316-0.472-2.095c0-1.229,0.387-2.244,1.161-3.045
			c0.773-0.801,1.764-1.201,2.97-1.201c0.866,0,1.594,0.142,2.182,0.425v1.039c-0.644-0.414-1.407-0.62-2.288-0.62
			c-0.581,0-1.104,0.141-1.568,0.422c-0.465,0.281-0.828,0.679-1.088,1.193c-0.261,0.514-0.392,1.085-0.392,1.715
			c0,1.009,0.264,1.806,0.792,2.388c0.527,0.583,1.247,0.875,2.157,0.875c0.618,0,1.157-0.126,1.616-0.38v-2.24h-1.744v-0.849h2.676
			L51.235,20.489L51.235,20.489z"/>
		<path fill="#FFFFFF" d="M57.536,18.405h-4.014c0.015,0.645,0.184,1.137,0.508,1.478c0.324,0.341,0.773,0.511,1.347,0.511
			c0.644,0,1.23-0.208,1.76-0.625v0.854c-0.496,0.369-1.155,0.553-1.977,0.553c-0.811,0-1.443-0.264-1.899-0.791
			c-0.455-0.527-0.683-1.256-0.683-2.187c0-0.566,0.114-1.083,0.341-1.55c0.227-0.467,0.542-0.83,0.941-1.087
			c0.4-0.257,0.844-0.385,1.333-0.385c0.736,0,1.311,0.241,1.724,0.724c0.413,0.482,0.619,1.157,0.619,2.025V18.405z M56.604,17.628
			c-0.007-0.529-0.134-0.939-0.38-1.232s-0.593-0.438-1.041-0.438c-0.422,0-0.783,0.153-1.083,0.458
			c-0.3,0.305-0.488,0.709-0.566,1.212H56.604z"/>
		<path fill="#FFFFFF" d="M61.506,20.98c-0.218,0.123-0.503,0.184-0.855,0.184c-0.992,0-1.488-0.562-1.488-1.687v-3.386h-0.977
			v-0.776h0.977v-1.396l0.911-0.296v1.693h1.433v0.776h-1.433v3.229c0,0.384,0.065,0.657,0.194,0.819
			c0.13,0.162,0.346,0.243,0.65,0.243c0.226,0,0.422-0.062,0.588-0.184V20.98L61.506,20.98z"/>
		<path fill="#FFFFFF" d="M66.437,13.265c0,0.171-0.059,0.314-0.177,0.427c-0.119,0.114-0.26,0.17-0.423,0.17
			c-0.166,0-0.307-0.055-0.421-0.165c-0.115-0.11-0.173-0.254-0.173-0.433c0-0.16,0.057-0.299,0.169-0.416
			c0.113-0.118,0.255-0.176,0.425-0.176c0.171,0,0.313,0.058,0.428,0.173C66.38,12.961,66.437,13.101,66.437,13.265z M66.281,21.036
			h-0.91v-5.721h0.91V21.036z"/>
		<path fill="#FFFFFF" d="M70.704,20.98c-0.219,0.123-0.504,0.184-0.855,0.184c-0.992,0-1.488-0.562-1.488-1.687v-3.386h-0.978
			v-0.776h0.978v-1.396l0.911-0.296v1.693h1.433v0.776h-1.433v3.229c0,0.384,0.064,0.657,0.194,0.819
			c0.129,0.162,0.346,0.243,0.649,0.243c0.226,0,0.422-0.062,0.589-0.184V20.98z"/>
		<path fill="#FFFFFF" d="M79.732,18.153c0,0.909-0.258,1.64-0.771,2.193c-0.513,0.553-1.2,0.83-2.062,0.83
			c-0.842,0-1.512-0.269-2.014-0.807s-0.753-1.247-0.753-2.126c0-0.946,0.259-1.693,0.772-2.243s1.223-0.824,2.126-0.824
			c0.845,0,1.505,0.265,1.981,0.796C79.491,16.503,79.732,17.23,79.732,18.153z M78.799,18.187c0-0.719-0.158-1.27-0.475-1.654
			c-0.316-0.383-0.77-0.575-1.357-0.575c-0.585,0-1.048,0.196-1.388,0.589c-0.341,0.393-0.511,0.947-0.511,1.662
			c0,0.685,0.17,1.221,0.513,1.606c0.343,0.386,0.806,0.578,1.386,0.578c0.592,0,1.047-0.19,1.36-0.57
			C78.641,19.443,78.799,18.898,78.799,18.187z"/>
		<path fill="#FFFFFF" d="M85.818,21.036h-0.911v-3.263c0-1.21-0.44-1.815-1.321-1.815c-0.447,0-0.822,0.17-1.124,0.511
			c-0.302,0.341-0.453,0.775-0.453,1.304v3.263H81.1v-5.721h0.909v0.95h0.022c0.426-0.726,1.048-1.089,1.865-1.089
			c0.625,0,1.103,0.205,1.431,0.614c0.327,0.41,0.491,0.991,0.491,1.743V21.036z"/>
		<path fill="#FFFFFF" d="M61.03,25.954l-3.602,12.832h-1.752l-2.624-9.388c-0.101-0.352-0.166-0.783-0.196-1.297H52.82
			c-0.047,0.44-0.127,0.867-0.24,1.279l-2.642,9.404h-1.734l-3.726-12.832h1.636l2.712,9.844c0.113,0.436,0.187,0.864,0.223,1.288
			h0.036c0.029-0.364,0.118-0.793,0.267-1.288l2.828-9.844h1.441l2.694,9.915c0.101,0.37,0.172,0.767,0.214,1.19h0.035
			c0.03-0.312,0.11-0.721,0.24-1.228l2.606-9.879h1.62V25.954z"/>
		<path fill="#FFFFFF" d="M64.09,26.339c0,0.275-0.095,0.503-0.285,0.685c-0.19,0.183-0.415,0.273-0.676,0.273
			c-0.267,0-0.492-0.088-0.676-0.264s-0.275-0.408-0.275-0.694c0-0.256,0.09-0.479,0.271-0.667c0.181-0.188,0.408-0.282,0.68-0.282
			c0.273,0,0.501,0.092,0.685,0.277C63.998,25.853,64.09,26.077,64.09,26.339z M63.841,38.786h-1.458v-9.163h1.458V38.786z"/>
		<path fill="#FFFFFF" d="M73.698,38.786h-1.459v-5.226c0-1.938-0.705-2.908-2.116-2.908c-0.718,0-1.318,0.271-1.801,0.818
			c-0.483,0.545-0.726,1.241-0.726,2.09v5.226h-1.458v-9.163h1.458v1.521h0.036c0.682-1.164,1.678-1.746,2.988-1.746
			c1.002,0,1.765,0.328,2.29,0.984c0.523,0.656,0.787,1.588,0.787,2.792L73.698,38.786L73.698,38.786z"/>
		<path fill="#FFFFFF" d="M84.07,38.786h-1.457v-1.558h-0.036c-0.677,1.188-1.72,1.78-3.13,1.78c-1.15,0-2.066-0.416-2.748-1.248
			c-0.684-0.831-1.023-1.942-1.023-3.333c0-1.516,0.379-2.732,1.135-3.65c0.756-0.92,1.769-1.379,3.037-1.379
			c1.245,0,2.154,0.496,2.729,1.485h0.036V25.22h1.457V38.786z M82.613,34.645v-1.353c0-0.758-0.252-1.388-0.752-1.888
			c-0.502-0.502-1.11-0.752-1.827-0.752c-0.878,0-1.574,0.326-2.091,0.979c-0.517,0.653-0.773,1.559-0.773,2.717
			c0,1.049,0.243,1.881,0.729,2.491c0.486,0.611,1.143,0.917,1.967,0.917c0.8,0,1.458-0.292,1.975-0.877
			C82.355,36.296,82.613,35.55,82.613,34.645z"/>
		<path fill="#FFFFFF" d="M94.748,34.169c0,1.455-0.41,2.626-1.23,3.513c-0.822,0.887-1.924,1.328-3.305,1.328
			c-1.347,0-2.421-0.431-3.225-1.293c-0.803-0.861-1.205-1.996-1.205-3.404c0-1.516,0.412-2.713,1.236-3.592
			c0.823-0.881,1.959-1.32,3.405-1.32c1.353,0,2.41,0.425,3.175,1.274C94.366,31.523,94.748,32.689,94.748,34.169z M93.254,34.223
			c0-1.15-0.253-2.033-0.76-2.647c-0.508-0.614-1.232-0.923-2.176-0.923c-0.937,0-1.678,0.314-2.223,0.945
			c-0.546,0.629-0.818,1.517-0.818,2.661c0,1.099,0.273,1.955,0.822,2.572s1.289,0.926,2.219,0.926c0.949,0,1.676-0.304,2.18-0.911
			C93.002,36.236,93.254,35.361,93.254,34.223z"/>
		<path fill="#FFFFFF" d="M107.88,29.623l-2.729,9.163h-1.512l-1.878-6.56c-0.065-0.228-0.112-0.508-0.143-0.842h-0.035
			c-0.019,0.209-0.08,0.483-0.187,0.823l-2.037,6.577H97.9l-2.748-9.163h1.529l1.877,6.892c0.06,0.237,0.102,0.512,0.125,0.822h0.07
			c0.012-0.227,0.068-0.508,0.169-0.842l2.091-6.872h1.334l1.895,6.907c0.06,0.232,0.101,0.508,0.124,0.824h0.071
			c0.012-0.287,0.06-0.562,0.143-0.824l1.857-6.907L107.88,29.623L107.88,29.623z"/>
		<path fill="#FFFFFF" d="M114.482,36.334c0,0.794-0.306,1.438-0.912,1.934c-0.607,0.496-1.416,0.742-2.424,0.742
			c-0.859,0-1.612-0.185-2.26-0.555V36.88c0.719,0.585,1.506,0.877,2.366,0.877c1.156,0,1.733-0.426,1.733-1.278
			c0-0.347-0.112-0.629-0.338-0.847s-0.737-0.512-1.539-0.882c-0.807-0.346-1.375-0.717-1.707-1.113
			c-0.332-0.396-0.498-0.924-0.498-1.58c0-0.757,0.303-1.39,0.906-1.896c0.605-0.507,1.373-0.761,2.305-0.761
			c0.718,0,1.365,0.144,1.947,0.43v1.477c-0.594-0.436-1.28-0.652-2.062-0.652c-0.48,0-0.867,0.119-1.161,0.356
			c-0.293,0.239-0.44,0.546-0.44,0.923c0,0.405,0.113,0.717,0.34,0.936c0.225,0.218,0.689,0.477,1.396,0.773
			c0.866,0.369,1.474,0.758,1.823,1.162C114.307,35.21,114.482,35.721,114.482,36.334z"/>
		<path fill="#FFFFFF" d="M121.615,38.786V27.699c-0.256,0.257-0.686,0.543-1.295,0.859c-0.606,0.315-1.159,0.535-1.657,0.662
			v-1.486c0.642-0.178,1.331-0.469,2.071-0.867c0.742-0.4,1.338-0.799,1.787-1.199h0.553v13.118H121.615z"/>
		<path fill="#FFFFFF" d="M133.986,32.316c0,2.117-0.369,3.763-1.11,4.936c-0.741,1.172-1.797,1.758-3.166,1.758
			c-1.28,0-2.272-0.552-2.976-1.654c-0.702-1.104-1.055-2.68-1.055-4.726c0-2.231,0.365-3.938,1.094-5.118
			c0.729-1.182,1.797-1.771,3.203-1.771C132.65,25.74,133.986,27.932,133.986,32.316z M132.493,32.46
			c0-3.651-0.862-5.478-2.589-5.478c-1.819,0-2.729,1.858-2.729,5.576c0,3.465,0.894,5.197,2.677,5.197
			C131.613,37.757,132.493,35.991,132.493,32.46z"/>
	</g>
</g>
</svg>
